HIERARCHY
ROOT simHips
{
  OFFSET 6.13146 95.3961 -0.669452
  CHANNELS 6 Xposition Yposition Zposition Zrotation Xrotation Yrotation
  JOINT simSpine
  {
    OFFSET -0.000360269 21.3001 -0.0169217
    CHANNELS 3 Zrotation Xrotation Yrotation
    JOINT simLeftArm
    {
      OFFSET 13.5181 21.3012 -2.3511e-005
      CHANNELS 3 Zrotation Xrotation Yrotation
      JOINT simLeftForeArm
      {
        OFFSET 24.5783 0 -6.3921e-005
        CHANNELS 3 Zrotation Xrotation Yrotation
        JOINT simLeftHand
        {
          OFFSET 24.5783 0 0
          CHANNELS 3 Zrotation Xrotation Yrotation
          End Site
          {
            OFFSET 7.32568 1.52588e-005 0.0169305
          }
        }
      }
    }
    JOINT simHead
    {
      OFFSET 0 27.4458 -0.00488811
      CHANNELS 3 Zrotation Xrotation Yrotation
      End Site
      {
        OFFSET 0 0 0
      }
    }
    JOINT simRightArm
    {
      OFFSET -13.5174 21.3012 -1.52733e-005
      CHANNELS 3 Zrotation Xrotation Yrotation
      JOINT simRightForeArm
      {
        OFFSET -24.5783 -0.000552281 0.000112897
        CHANNELS 3 Zrotation Xrotation Yrotation
        JOINT simRightHand
        {
          OFFSET -24.5783 0 1.19926e-005
          CHANNELS 3 Zrotation Xrotation Yrotation
          End Site
          {
            OFFSET -7.32568 1.52588e-005 0.0169305
          }
        }
      }
    }
  }
  JOINT simRightUpLeg
  {
    OFFSET -8.44614 -9.41038 0.835682
    CHANNELS 3 Zrotation Xrotation Yrotation
    JOINT simRightLeg
    {
      OFFSET -3.23466e-005 -40.9639 0
      CHANNELS 3 Zrotation Xrotation Yrotation
      JOINT simRightFoot
      {
        OFFSET 0 -40.9639 0
        CHANNELS 3 Zrotation Xrotation Yrotation
        End Site
        {
          OFFSET 0.50614 -9.67405 14.6709
        }
      }
    }
  }
  JOINT simLeftUpLeg
  {
    OFFSET 8.44614 -9.41038 0.835681
    CHANNELS 3 Zrotation Xrotation Yrotation
    JOINT simLeftLeg
    {
      OFFSET -0.00018133 -40.964 6.2497e-005
      CHANNELS 3 Zrotation Xrotation Yrotation
      JOINT simLeftFoot
      {
        OFFSET 0 -40.9639 0
        CHANNELS 3 Zrotation Xrotation Yrotation
        End Site
        {
          OFFSET -0.50614 -9.67405 14.6709
        }
      }
    }
  }
}
MOTION
Frames:	22
Frame Time:	0.0333333
4.79561 98.8132 7.48972 4.48978 7.02419 -32.7607 1.887 7.04684 8.11021 -69.9086 -5.68589 6.36443 -7.3773e-006 -6.94762e-006 -63.2935 -36.7349 -39.0185 -63.7409 -0.0109661 -11.4175 4.73835 57.0567 5.65136 46.0083 -0.00153354 -1.3301e-006 93.3215 168.612 -20.4912 -151.415 -21.415 1.48472 -29.8042 -0.00455851 17.5763 0.0306235 25.2397 -12.5779 5.64048 26.8576 -32.9893 22.0878 0.0046686 38.4276 -0.0953232 -16.3737 -5.62747 -6.03504 
4.38097 98.8386 7.45682 4.39299 6.06005 -32.9582 2.26901 6.44358 7.66984 -70.0417 -5.69443 7.20343 -7.56792e-006 -6.55502e-006 -64.9111 -36.8678 -39.0742 -64.1407 -0.125202 -10.1946 5.1471 56.4978 5.38798 45.8653 -0.00153347 -2.20905e-006 95.5218 169.651 -22.506 -148.399 -21.6014 2.44017 -29.3618 -0.00449577 17.4643 0.0306047 25.239 -12.8656 5.80794 26.369 -31.6296 21.6778 0.00347558 37.8615 -0.0945863 -16.7028 -5.54464 -6.02597 
3.97112 98.8677 7.42352 4.29435 5.04222 -33.1859 2.44988 6.16849 7.24837 -70.1538 -5.80824 7.66624 -7.70192e-006 -6.26084e-006 -66.1092 -36.9057 -39.0084 -64.2144 -0.323185 -9.77678 5.16716 56.1514 4.80311 45.9093 -0.00153336 -3.14695e-006 97.8789 171.049 -23.5048 -146.325 -21.8279 3.43382 -28.8764 -0.00441873 17.3267 0.0305816 25.2358 -13.137 5.97052 25.8451 -30.1919 21.2574 0.00221136 37.2519 -0.0938157 -17.0399 -5.45787 -5.98946 
3.60435 98.8949 7.38955 4.17173 4.17053 -33.407 2.68043 5.96925 6.73434 -70.2807 -5.91422 7.92384 -7.79914e-006 -6.03658e-006 -67.0151 -37.2663 -39.3387 -64.297 -0.444015 -9.63639 5.31241 55.7406 4.24925 45.9153 -0.00153322 -4.01336e-006 100.068 171.488 -23.8582 -145.563 -21.9872 4.30987 -28.4331 -0.00433901 17.184 0.030558 25.2384 -13.3784 6.11913 25.4347 -28.8921 20.9026 0.00100268 36.6597 -0.0930891 -17.3439 -5.36627 -5.92454 
3.29727 98.913 7.34874 4.02516 3.55412 -33.5935 2.99633 5.81448 6.06937 -70.3258 -5.85775 8.03008 -7.85413e-006 -5.90526e-006 -67.5428 -38.1077 -39.6404 -64.8195 -0.455742 -9.49023 5.85512 55.2234 3.84631 45.7081 -0.00153306 -4.85031e-006 102.197 171.475 -24.3315 -145.085 -22.0281 4.96667 -28.0892 -0.00434483 17.0741 0.0307685 25.2455 -13.603 6.25188 25.2145 -27.8698 20.6535 0.000190598 36.1358 -0.0928738 -17.5966 -5.26691 -5.85026 
3.05932 98.9163 7.2933 3.89561 3.18447 -33.6258 3.32268 5.69117 5.19714 -70.1576 -5.3468 7.83152 -7.84864e-006 -5.91853e-006 -67.4896 -38.7922 -39.5004 -65.9742 -0.275233 -9.40184 6.0465 54.9079 3.3914 45.3756 -0.00153287 -5.67312e-006 104.307 172.031 -24.8202 -144.117 -21.984 5.41333 -27.9376 -0.00445354 17.0389 0.0312011 25.2592 -13.7917 6.35274 25.1052 -27.2524 20.3923 -8.83818e-005 35.7491 -0.0932648 -17.7884 -5.16812 -5.77845 
2.85853 98.9015 7.22042 3.76219 3.05145 -33.6344 3.72291 5.5673 4.31201 -69.9157 -4.78483 7.52645 -7.84127e-006 -5.93627e-006 -67.4184 -39.1382 -39.4142 -66.5338 -0.100111 -9.13969 6.50959 54.9217 2.85935 44.9909 -0.00153267 -6.40571e-006 106.202 172.557 -24.882 -143.034 -21.8338 5.6036 -27.8535 -0.00466468 17.1043 0.0318033 25.2673 -13.981 6.43035 25.2095 -26.9344 20.2856 1.99799e-005 35.5083 -0.094 -17.9387 -5.09606 -5.75987 
2.70967 98.8826 7.15393 3.63422 3.05224 -33.6658 4.11771 5.53747 3.50009 -69.6304 -4.27949 7.1113 -7.84268e-006 -5.93289e-006 -67.432 -39.1837 -39.5278 -66.4905 0.0176994 -9.04157 6.97156 55.1875 2.21161 44.505 -0.00153245 -7.10057e-006 108.017 172.971 -24.8965 -142.234 -21.6594 5.61696 -27.771 -0.00495109 17.2465 0.032515 25.2658 -14.1644 6.48511 25.419 -26.773 20.316 0.000258145 35.36 -0.094754 -18.0256 -5.03042 -5.78027 
2.62066 98.8628 7.08989 3.5273 3.18164 -33.75 4.50794 5.60636 2.74891 -69.3313 -3.83748 6.68607 -7.86008e-006 -5.89085e-006 -67.6006 -39.3502 -39.8021 -66.3506 0.0384326 -9.23561 7.1966 55.6221 1.58858 43.9654 -0.00153224 -7.72526e-006 109.664 173.121 -24.9652 -141.781 -21.482 5.42579 -27.6632 -0.00530178 17.4694 0.033281 25.2476 -14.3322 6.50898 25.7237 -26.7897 20.4662 0.000549097 35.3382 -0.095308 -18.052 -4.9543 -5.79237 
2.60478 98.8471 7.02334 3.55356 3.46065 -33.9173 4.71244 5.74935 2.07094 -69.0295 -3.46693 6.24268 -7.88085e-006 -5.84021e-006 -67.8034 -39.8228 -40.0199 -66.8504 0.27159 -9.75387 7.48537 56.1347 0.977485 43.3376 -0.00153205 -8.24435e-006 111.046 172.993 -25.3418 -142.132 -21.3914 4.9216 -27.5301 -0.00571792 17.7966 0.03405 25.2128 -14.4773 6.49185 26.0559 -27.0578 20.7658 0.000744993 35.442 -0.095403 -18.0133 -4.85829 -5.75874 
2.65424 98.833 6.95785 3.70463 3.94082 -34.1456 4.82438 5.851 1.49241 -68.7648 -3.16484 5.89079 -7.90966e-006 -5.76909e-006 -68.0878 -39.8645 -39.8748 -66.8097 0.386397 -10.0427 7.96669 56.737 0.28247 42.6134 -0.00153185 -8.72615e-006 112.34 173.172 -25.935 -142.466 -21.3447 4.08061 -27.4054 -0.00619119 18.2361 0.0347685 25.1616 -14.6104 6.43492 26.4592 -27.601 21.2344 0.000645812 35.6493 -0.094751 -17.9092 -4.7536 -5.69119 
2.76286 98.8204 6.89395 3.92309 4.69678 -34.4257 5.00292 5.84179 1.07286 -68.6614 -2.83807 5.67048 -7.95615e-006 -5.65213e-006 -68.5543 -39.4738 -39.5989 -66.467 0.40397 -10.3765 8.46135 57.3282 -0.562865 41.7211 -0.00153166 -9.17513e-006 113.557 173.238 -26.4049 -142.923 -21.2404 2.89751 -27.313 -0.0066844 18.7546 0.0353744 25.0965 -14.7193 6.33939 27.0377 -28.4342 21.8912 5.09353e-005 35.944 -0.0930641 -17.7454 -4.64554 -5.59031 
2.93224 98.8138 6.83129 4.18988 5.5933 -34.7549 5.09171 5.92156 0.688683 -68.6251 -2.64054 5.53236 -8.01497e-006 -5.50005e-006 -69.1587 -39.071 -39.3519 -66.2029 0.635969 -11.0204 9.14945 57.979 -1.45604 40.8098 -0.00153147 -9.60999e-006 114.747 173.415 -26.5201 -142.727 -21.1306 1.50803 -27.2208 -0.00714781 19.3069 0.0358011 25.0153 -14.7779 6.20429 27.708 -29.4379 22.6967 7.7327e-005 36.3036 -0.0879735 -17.5092 -4.52567 -5.43679 
3.15948 98.8132 6.7765 4.49296 6.56082 -35.1175 5.01809 6.20817 0.402962 -68.6118 -2.56704 5.38763 -8.07669e-006 -5.33508e-006 -69.8115 -38.6072 -39.015 -65.6925 1.10749 -11.7605 9.97993 58.7498 -2.33408 39.7277 -0.00153131 -9.95749e-006 115.705 173.346 -25.936 -143.593 -21.0371 0.0118464 -27.1291 -0.00752403 19.8438 0.0359782 24.9329 -14.7567 6.03575 28.4218 -30.5468 23.5941 0.000162259 36.7139 -0.0821104 -17.2165 -4.41148 -5.23173 
3.42708 98.8143 6.7311 4.84296 7.62668 -35.5055 4.83323 6.59911 0.225918 -68.5384 -2.47912 5.35391 -8.14997e-006 -5.13141e-006 -70.6137 -38.0379 -38.5482 -65.0813 1.64108 -12.6993 10.4753 59.6119 -3.24206 38.7052 -0.00153116 -1.02501e-005 116.518 173.597 -25.5224 -143.93 -20.9387 -1.59923 -27.0617 -0.00777479 20.3499 0.0358412 24.8476 -14.6555 5.8393 29.2044 -31.7788 24.5477 0.000152393 37.1634 -0.0757511 -16.9068 -4.31821 -4.99706 
3.73009 98.8082 6.68062 5.27873 8.84254 -35.9789 4.5116 7.03468 0.180316 -68.4651 -2.44677 5.36865 -8.22293e-006 -4.91917e-006 -71.4455 -37.4831 -38.2652 -64.4876 2.14232 -13.6064 10.7787 60.5017 -4.17582 37.8762 -0.00153106 -1.04573e-005 117.098 173.984 -25.2181 -143.873 -20.8178 -3.39211 -27.0177 -0.00783757 20.7751 0.0353161 24.7549 -14.4659 5.6259 30.1573 -33.1818 25.6953 3.43858e-005 37.7033 -0.0690657 -16.5899 -4.26957 -4.76744 
4.06139 98.7955 6.64276 5.75513 10.1615 -36.4352 4.1053 7.53446 0.214044 -68.3907 -2.36243 5.27861 -8.27892e-006 -4.7491e-006 -72.1091 -36.5491 -38.064 -64.0234 2.52936 -14.3935 11.2398 61.4405 -5.02196 37.2546 -0.00917567 -1.05409e-005 117.333 174.195 -24.9633 -143.767 -20.6499 -5.17601 -27.1065 -0.0076064 20.998 0.0343127 24.6978 -14.1723 5.43969 31.2179 -34.7118 26.9173 8.54975e-006 38.2978 -0.0624188 -16.2576 -4.27094 -4.53161 
4.41705 98.7728 6.62306 6.16278 11.5926 -36.8603 3.77383 8.04602 0.271745 -68.3142 -2.42348 5.21822 -8.31346e-006 -4.64073e-006 -72.5307 -36.0198 -37.6336 -63.96 2.69985 -14.9442 11.5767 62.2435 -5.58813 36.8091 -0.0206961 -1.04747e-005 117.147 174.336 -24.9165 -143.617 -20.3473 -6.90252 -27.2934 -0.00708365 21.0481 0.0327791 24.6691 -13.7989 5.28067 32.4661 -36.3053 28.1706 6.80695e-005 38.9358 -0.0560647 -15.9321 -4.32658 -4.29134 
4.82168 98.7279 6.62775 6.48956 13.0983 -37.2814 3.55134 8.61096 0.44086 -68.2276 -2.54834 5.16077 -8.34184e-006 -4.54957e-006 -72.8846 -35.8993 -37.2396 -64.2992 2.78891 -15.4854 11.8264 62.8246 -5.99104 36.3131 -0.00221775 -1.03666e-005 116.844 174.592 -24.8675 -143.876 -19.9638 -8.66838 -27.4628 -0.00580562 21.1582 0.0290757 24.6553 -13.4491 5.12033 33.9143 -37.9131 29.4684 1.03954e-005 39.6346 -0.0499316 -15.6274 -4.44107 -4.05845 
5.25683 98.6506 6.65735 6.85032 14.6325 -37.6841 3.26828 9.14327 0.728982 -68.0742 -2.67211 5.00981 -8.3567e-006 -4.50105e-006 -73.0726 -35.1925 -37.2384 -63.7529 2.95201 -16.0681 12.1823 63.4207 -6.202 36.0586 -5.30158e-006 -1.0213e-005 116.415 174.634 -25.1292 -143.85 -19.6358 -10.4877 -27.6601 -0.00444809 21.3546 0.0250925 24.6804 -13.1535 4.97255 35.4518 -39.5852 30.8097 -0.000215069 40.4105 -0.044047 -15.3453 -4.63301 -3.84872 
5.69054 98.5459 6.72179 7.18462 16.0983 -37.9922 2.92196 9.69844 1.1278 -67.8491 -2.7482 4.69058 -8.35312e-006 -4.5128e-006 -73.0271 -34.6933 -37.1357 -63.5849 3.07264 -16.4681 12.3187 63.9221 -6.30724 35.8466 0.000833579 -1.00414e-005 115.938 174.568 -25.63 -143.509 -19.3401 -12.1453 -27.9238 -0.00300226 21.5136 0.0209731 24.7457 -12.8849 4.85142 36.9891 -41.227 32.095 -0.000554112 41.2475 -0.0389858 -15.0891 -4.91665 -3.68968 
6.10117 98.4099 6.82819 7.48239 17.4534 -38.1742 2.4991 10.3122 1.562 -67.5192 -2.87868 4.23893 -8.32756e-006 -4.59569e-006 -72.7056 -34.8913 -37.0105 -63.7225 3.14727 -16.6707 12.2622 64.4309 -6.29064 35.6124 0.00121544 -9.80442e-006 115.282 174.826 -26.3619 -143.358 -19.0996 -13.5802 -28.2665 -0.00149727 21.6469 0.0167703 24.8484 -12.6725 4.76918 38.4784 -42.8096 33.3113 -0.000800664 42.1498 -0.0351291 -14.8602 -5.30422 -3.61936 
